# xmcd
#
# Track frame offsets: 
#        150
#        21972
#        54612
#        81795
#        107500
#        131827
#        159259
#        192882
#        218077
#        244155
#        260250
#
# Disc length: 3770 seconds
#
# Revision: 3
# Processed by: cddbd v1.5.2PL0 Copyright (c) Steve Scherf et al.
# Submitted via: ExactAudioCopy v0.99pb4
#
DISCID=8f0eb80b
DTITLE=Bob Leatherbarrow - Bumpin' In The Basement
DYEAR=1998
DGENRE=Jazz
TTITLE0=Don't Mess with the Messenger
TTITLE1=3+5=4
TTITLE2=Bumpin' in the Basement
TTITLE3=Willows
TTITLE4=Monkalonius
TTITLE5=Rush Hour
TTITLE6=One in Three
TTITLE7=Speechless
TTITLE8=Silver Slippers
TTITLE9=Check Please
TTITLE10=Over Easy
EXTD=
EXTT0=
EXTT1=
EXTT2=
EXTT3=
EXTT4=
EXTT5=
EXTT6=
EXTT7=
EXTT8=
EXTT9=
EXTT10=
PLAYORDER=
